<?xml version="1.0" encoding="UTF-8"?>
<svg width="400px" height="400px" viewBox="0 0 400 400" version="1.1" xmlns="http://www.w3.org/2000/svg" xmlns:xlink="http://www.w3.org/1999/xlink">
    <!-- Generator: Sketch 41.2 (35397) - http://www.bohemiancoding.com/sketch -->
    <title>logo</title>
    <desc>Created with Sketch.</desc>
    <defs></defs>
    <g id="Page-1" stroke="none" stroke-width="1" fill="none" fill-rule="evenodd">
        <g id="logo">
            <rect id="Rectangle-2" fill="#FDFDFD" x="0" y="0" width="400" height="400"></rect>
            <path d="M86.16,197.44 L86.16,232 L72.72,232 L72.72,168.16 L86.16,168.16 L86.16,179.8 C88.3200108,175.87998 91.299981,172.800011 95.1,170.56 C98.900019,168.319989 102.999978,167.2 107.4,167.2 C114.600036,167.2 120.419978,169.399978 124.86,173.8 C129.300022,178.200022 131.52,184.559958 131.52,192.88 L131.52,232 L118.08,232 L118.08,196.96 C118.08,185.199941 113.200049,179.32 103.44,179.32 C98.7999768,179.32 94.7600172,180.859985 91.32,183.94 C87.8799828,187.020015 86.16,191.51997 86.16,197.44 Z M209.64,205.96 L159.6,205.96 C159.920002,210.600023 162.03998,214.339986 165.96,217.18 C169.88002,220.020014 174.359975,221.44 179.4,221.44 C187.40004,221.44 193.479979,218.920025 197.64,213.88 L205.32,222.28 C198.439966,229.400036 189.480055,232.96 178.44,232.96 C169.479955,232.96 161.860031,229.98003 155.58,224.02 C149.299969,218.05997 146.16,210.06005 146.16,200.02 C146.16,189.97995 149.359968,182.00003 155.76,176.08 C162.160032,170.15997 169.699957,167.2 178.38,167.2 C187.060043,167.2 194.43997,169.819974 200.52,175.06 C206.60003,180.300026 209.64,187.519954 209.64,196.72 L209.64,205.96 Z M159.6,195.4 L196.2,195.4 C196.2,190.039973 194.520017,185.920014 191.16,183.04 C187.799983,180.159986 183.660025,178.72 178.74,178.72 C173.819975,178.72 169.40002,180.219985 165.48,183.22 C161.55998,186.220015 159.6,190.279974 159.6,195.4 Z M276.12,232 L263.88,232 L263.88,223.48 C258.599974,229.800032 251.520044,232.96 242.64,232.96 C235.999967,232.96 230.500022,231.080019 226.14,227.32 C221.779978,223.559981 219.6,218.540031 219.6,212.26 C219.6,205.979969 221.919977,201.280016 226.56,198.16 C231.200023,195.039984 237.47996,193.48 245.4,193.48 L262.8,193.48 L262.8,191.08 C262.8,182.599958 258.080047,178.36 248.64,178.36 C242.71997,178.36 236.560032,180.519978 230.16,184.84 L224.16,176.44 C231.920039,170.279969 240.719951,167.2 250.56,167.2 C258.080038,167.2 264.219976,169.099981 268.98,172.9 C273.740024,176.700019 276.12,182.679959 276.12,190.84 L276.12,232 Z M262.68,208.24 L262.68,202.84 L247.56,202.84 C237.879952,202.84 233.04,205.87997 233.04,211.96 C233.04,215.080016 234.239988,217.459992 236.64,219.1 C239.040012,220.740008 242.379979,221.56 246.66,221.56 C250.940021,221.56 254.679984,220.360012 257.88,217.96 C261.080016,215.559988 262.68,212.32002 262.68,208.24 Z M311.4,178.96 L311.4,211.36 C311.4,214.400015 312.199992,216.819991 313.8,218.62 C315.400008,220.420009 317.639986,221.32 320.52,221.32 C323.400014,221.32 326.159987,219.920014 328.8,217.12 L334.32,226.6 C329.599976,230.840021 324.380029,232.96 318.66,232.96 C312.939971,232.96 308.06002,230.98002 304.02,227.02 C299.97998,223.05998 297.96,217.720034 297.96,211 L297.96,178.96 L289.92,178.96 L289.92,168.16 L297.96,168.16 L297.96,148.12 L311.4,148.12 L311.4,168.16 L328.2,168.16 L328.2,178.96 L311.4,178.96 Z" id="neat" fill="#000000"></path>
        </g>
    </g>
</svg>