<?xml version="1.0" encoding="UTF-8"?>
<svg width="400px" height="400px" viewBox="0 0 400 400" version="1.1" xmlns="http://www.w3.org/2000/svg" xmlns:xlink="http://www.w3.org/1999/xlink">
    <!-- Generator: Sketch 41.2 (35397) - http://www.bohemiancoding.com/sketch -->
    <title>icon</title>
    <desc>Created with Sketch.</desc>
    <defs></defs>
    <g id="Page-1" stroke="none" stroke-width="1" fill="none" fill-rule="evenodd">
        <g id="icon">
            <g id="Page-1">
                <g id="logo">
                    <rect id="Rectangle-2" fill="#FDFDFD" x="0" y="0" width="400" height="400"></rect>
                    <path d="M31.6386719,371 L31.6386719,364.457031 L37.9375,363.480469 L37.9375,325.931641 L31.296875,323.880859 L31.296875,316.507812 L48.7773438,314.115234 L49.0214844,314.115234 L51.609375,316.214844 L51.609375,322.025391 C52.6835991,321.048823 53.9531177,320.088546 55.4179688,319.144531 C56.8828198,318.200516 58.469718,317.370446 60.1787109,316.654297 C61.8877039,315.938147 63.6861885,315.360354 65.5742188,314.920898 C67.462249,314.481443 69.3665269,314.261719 71.2871094,314.261719 C74.412125,314.261719 77.0244036,314.668616 79.1240234,315.482422 C81.2236433,316.296228 82.8919209,317.598298 84.1289062,319.388672 C85.3658916,321.179045 86.2447891,323.482082 86.765625,326.297852 C87.2864609,329.113621 87.546875,332.507142 87.546875,336.478516 L87.546875,363.529297 L94.4804688,364.457031 L94.4804688,371 L66.9902344,371 L66.9902344,364.457031 L72.3125,363.529297 L72.3125,336.283203 C72.3125,334.037098 72.1985688,332.092131 71.9707031,330.448242 C71.7428374,328.804354 71.3278025,327.461594 70.7255859,326.419922 C70.1233694,325.37825 69.2932996,324.605146 68.2353516,324.100586 C67.1774036,323.596026 65.8183677,323.34375 64.1582031,323.34375 C63.0514268,323.34375 61.9609429,323.465819 60.8867188,323.709961 C59.8124946,323.954103 58.7952522,324.271482 57.8349609,324.662109 C56.8746697,325.052736 55.9957722,325.484047 55.1982422,325.956055 C54.4007122,326.428062 53.7089873,326.891925 53.1230469,327.347656 L53.1230469,363.480469 L59.6660156,364.457031 L59.6660156,371 L31.6386719,371 Z M125.828125,372.123047 C121.238258,372.123047 117.291358,371.406908 113.987305,369.974609 C110.683252,368.542311 107.96518,366.548515 105.833008,363.993164 C103.700836,361.437813 102.130213,358.386085 101.121094,354.837891 C100.111974,351.289696 99.6074219,347.416037 99.6074219,343.216797 C99.6074219,338.659482 100.250319,334.582375 101.536133,330.985352 C102.821947,327.388328 104.636707,324.328463 106.980469,321.805664 C109.32423,319.282865 112.139958,317.354173 115.427734,316.019531 C118.715511,314.684889 122.361308,314.017578 126.365234,314.017578 C139.874417,314.017578 146.921872,320.609309 147.507812,333.792969 C147.572917,336.039074 147.564779,338.065421 147.483398,339.87207 C147.402018,341.67872 147.231121,343.200515 146.970703,344.4375 L115.085938,344.4375 C115.248699,347.660172 115.720699,350.410796 116.501953,352.689453 C117.283207,354.96811 118.308587,356.823561 119.578125,358.255859 C120.847663,359.688158 122.353181,360.729814 124.094727,361.380859 C125.836272,362.031904 127.748688,362.357422 129.832031,362.357422 C131.492196,362.357422 133.038404,362.227215 134.470703,361.966797 C135.903002,361.706379 137.229486,361.380861 138.450195,360.990234 C139.670905,360.599607 140.777664,360.160159 141.770508,359.671875 C142.763351,359.183591 143.617835,358.711591 144.333984,358.255859 L146.873047,364.164062 C146.059241,365.010421 144.928067,365.897456 143.479492,366.825195 C142.030917,367.752934 140.370778,368.607418 138.499023,369.388672 C136.627269,370.169926 134.60906,370.820961 132.444336,371.341797 C130.279612,371.862633 128.07423,372.123047 125.828125,372.123047 Z M124.509766,320.560547 C123.240228,320.560547 122.060227,320.788409 120.969727,321.244141 C119.879226,321.699872 118.918949,322.562494 118.088867,323.832031 C117.258785,325.101569 116.575198,326.867502 116.038086,329.129883 C115.500974,331.392264 115.167318,334.313784 115.037109,337.894531 L132.566406,337.894531 C132.566406,337.73177 132.574544,337.503908 132.59082,337.210938 C132.607096,336.917967 132.623372,336.608726 132.639648,336.283203 C132.655925,335.957681 132.664062,335.648439 132.664062,335.355469 L132.664062,334.720703 C132.664062,333.060539 132.550131,331.375985 132.322266,329.666992 C132.0944,327.957999 131.679365,326.436205 131.077148,325.101562 C130.474932,323.76692 129.644862,322.676437 128.586914,321.830078 C127.528966,320.98372 126.16993,320.560547 124.509766,320.560547 Z M154.197266,356.15625 C154.197266,353.747384 154.628576,351.615244 155.491211,349.759766 C156.353845,347.904288 157.541985,346.2767 159.055664,344.876953 C160.569344,343.477207 162.351552,342.289067 164.402344,341.3125 C166.453135,340.335933 168.666655,339.530277 171.042969,338.895508 C173.419283,338.260739 175.893216,337.796876 178.464844,337.503906 C181.036471,337.210936 183.60806,337.031901 186.179688,336.966797 L186.179688,334.623047 C186.179688,330.912091 185.422859,328.26726 183.90918,326.688477 C182.3955,325.109693 179.913429,324.320312 176.462891,324.320312 C174.705069,324.320312 172.939136,324.458657 171.165039,324.735352 C169.390942,325.012046 167.690112,325.353839 166.0625,325.760742 C164.434888,326.167645 162.929369,326.62337 161.545898,327.12793 C160.162428,327.63249 158.982427,328.112628 158.005859,328.568359 L157.957031,328.568359 L155.076172,322.025391 C155.759769,321.472002 156.915356,320.747726 158.542969,319.852539 C160.170581,318.957352 162.123687,318.086593 164.402344,317.240234 C166.681001,316.393876 169.203762,315.661461 171.970703,315.042969 C174.737644,314.424476 177.585923,314.115234 180.515625,314.115234 C184.128924,314.115234 187.196927,314.505855 189.719727,315.287109 C192.242526,316.068363 194.293286,317.272778 195.87207,318.900391 C197.450854,320.528003 198.606442,322.586902 199.338867,325.077148 C200.071293,327.567395 200.4375,330.505191 200.4375,333.890625 L200.4375,364.359375 L206.492188,364.359375 L206.492188,370.365234 C205.873695,370.495443 205.108729,370.66634 204.197266,370.87793 C203.285803,371.089519 202.276698,371.28483 201.169922,371.463867 C200.063146,371.642905 198.875006,371.797525 197.605469,371.927734 C196.335931,372.057943 195.033861,372.123047 193.699219,372.123047 C192.527338,372.123047 191.526371,372.074219 190.696289,371.976562 C189.866207,371.878906 189.198896,371.651043 188.694336,371.292969 C188.189776,370.934894 187.823569,370.422204 187.595703,369.754883 C187.367837,369.087562 187.253906,368.18425 187.253906,367.044922 L187.253906,364.212891 C186.700518,364.961592 185.935552,365.791662 184.958984,366.703125 C183.982417,367.614588 182.802416,368.477209 181.418945,369.291016 C180.035475,370.104822 178.464853,370.780271 176.707031,371.317383 C174.94921,371.854495 173.01238,372.123047 170.896484,372.123047 C168.585275,372.123047 166.420583,371.813805 164.402344,371.195312 C162.384104,370.57682 160.618172,369.616543 159.104492,368.314453 C157.590813,367.012363 156.394536,365.352224 155.515625,363.333984 C154.636714,361.315745 154.197266,358.923191 154.197266,356.15625 Z M177.390625,362.699219 C177.976565,362.699219 178.643876,362.617839 179.392578,362.455078 C180.14128,362.292317 180.922522,362.064455 181.736328,361.771484 C182.550134,361.478514 183.347652,361.128583 184.128906,360.72168 C184.91016,360.314777 185.593747,359.850914 186.179688,359.330078 L186.179688,343.167969 C183.02212,343.167969 180.377289,343.460935 178.245117,344.046875 C176.112945,344.632815 174.412116,345.414058 173.142578,346.390625 C171.873041,347.367192 170.969729,348.490228 170.432617,349.759766 C169.895505,351.029303 169.626953,352.380201 169.626953,353.8125 C169.626953,356.70965 170.286126,358.915031 171.604492,360.428711 C172.922858,361.94239 174.85155,362.699219 177.390625,362.699219 Z M217.771484,359.28125 L217.771484,323.34375 L210.886719,323.34375 L210.886719,317.777344 C211.147137,317.712239 211.562172,317.573894 212.131836,317.362305 C212.7015,317.150715 213.287432,316.930991 213.889648,316.703125 C214.491865,316.475259 215.037107,316.255535 215.525391,316.043945 C216.013674,315.832356 216.322916,315.677735 216.453125,315.580078 C217.559901,314.701167 218.715489,313.138683 219.919922,310.892578 C220.245444,310.241533 220.603514,309.484705 220.994141,308.62207 C221.384768,307.759436 221.767251,306.856125 222.141602,305.912109 C222.515952,304.968094 222.865884,304.032231 223.191406,303.104492 C223.516929,302.176753 223.793619,301.338545 224.021484,300.589844 L232.712891,300.589844 L232.859375,315.042969 L247.214844,315.042969 L247.214844,323.34375 L232.859375,323.34375 L232.859375,350.394531 C232.859375,352.998711 232.900065,355.065748 232.981445,356.595703 C233.062826,358.125659 233.258136,359.281246 233.567383,360.0625 C233.876629,360.843754 234.356768,361.348306 235.007812,361.576172 C235.658857,361.804038 236.554031,361.917969 237.693359,361.917969 L237.742188,361.917969 C238.523441,361.917969 239.345373,361.852865 240.208008,361.722656 C241.070642,361.592447 241.916988,361.437826 242.74707,361.258789 C243.577153,361.079752 244.342119,360.884441 245.041992,360.672852 C245.741865,360.461262 246.319659,360.274089 246.775391,360.111328 L246.824219,360.111328 L249.119141,365.824219 C248.142573,366.57292 246.946296,367.321611 245.530273,368.070312 C244.114251,368.819014 242.551766,369.494463 240.842773,370.09668 C239.133781,370.698896 237.327158,371.187173 235.422852,371.561523 C233.518545,371.935874 231.606129,372.123047 229.685547,372.123047 L229.587891,372.123047 C227.439442,372.123047 225.608406,371.846357 224.094727,371.292969 C222.581047,370.739581 221.360356,369.917649 220.432617,368.827148 C219.504878,367.736648 218.829429,366.393888 218.40625,364.798828 C217.983071,363.203768 217.771484,361.364594 217.771484,359.28125 Z M266.404297,371.830078 C265.264968,371.830078 264.174484,371.651043 263.132812,371.292969 C262.091141,370.934894 261.179691,370.414066 260.398438,369.730469 C259.617184,369.046872 258.9987,368.22494 258.542969,367.264648 C258.087237,366.304357 257.859375,365.222011 257.859375,364.017578 C257.859375,362.682936 258.119789,361.454107 258.640625,360.331055 C259.161461,359.208002 259.8776,358.223312 260.789062,357.376953 C261.700525,356.530595 262.758458,355.871422 263.962891,355.399414 C265.167324,354.927406 266.453118,354.691406 267.820312,354.691406 C269.415373,354.691406 270.766271,354.902993 271.873047,355.326172 C272.979823,355.749351 273.883135,356.319007 274.583008,357.035156 C275.282881,357.751306 275.787433,358.581375 276.09668,359.525391 C276.405926,360.469406 276.560547,361.47851 276.560547,362.552734 C276.560547,363.952481 276.308271,365.222 275.803711,366.361328 C275.299151,367.500657 274.599288,368.477209 273.704102,369.291016 C272.808915,370.104822 271.734707,370.731443 270.481445,371.170898 C269.228184,371.610354 267.869148,371.830078 266.404297,371.830078 Z" id="neat." fill="#C0C0C0"></path>
                </g>
            </g>
        </g>
    </g>
</svg>